<svg xmlns="http://www.w3.org/2000/svg" width="70" height="78" viewBox="0 0 70 78">
    <g fill="none" fill-rule="evenodd">
        <g fill="#000" fill-rule="nonzero">
            <path d="M65.172 9.052H24.138v-4.87a1.153 1.153 0 0 1 1.255-1.165h16.8a1.316 1.316 0 0 1 1.255 1.37v2.25a1.207 1.207 0 1 0 2.414 0v-2.25A3.73 3.73 0 0 0 42.193.603h-16.8a3.542 3.542 0 0 0-3.669 3.579v4.87H4.828A4.828 4.828 0 0 0 0 13.879v35.604a4.828 4.828 0 0 0 4.828 4.827h19.738l.368-2.413H4.828a2.414 2.414 0 0 1-2.414-2.414V23.534h6.638v3.621c0 .667.54 1.207 1.207 1.207h4.827c.667 0 1.207-.54 1.207-1.207v-3.62h7.845a1.207 1.207 0 1 0 0-2.414H2.414v-7.242a2.414 2.414 0 0 1 2.414-2.413h60.344a2.414 2.414 0 0 1 2.414 2.413v7.242H45.862a1.207 1.207 0 1 0 0 2.413h7.845v3.621c0 .667.54 1.207 1.207 1.207h4.827c.667 0 1.207-.54 1.207-1.207v-3.62h6.638v25.948a2.414 2.414 0 0 1-2.414 2.414H45.186l.35 2.413h19.636A4.828 4.828 0 0 0 70 49.483V13.879a4.828 4.828 0 0 0-4.828-4.827zM13.88 25.948h-2.413v-2.414h2.413v2.414zm44.655 0h-2.413v-2.414h2.413v2.414z"/>
            <path d="M38.965 25.948a1.207 1.207 0 0 0 1.08-.941l1.55-7.211v-.06a2.323 2.323 0 0 0-.494-1.883 2.173 2.173 0 0 0-1.654-.767h-8.894a2.173 2.173 0 0 0-1.66.755 2.323 2.323 0 0 0-.495 1.882v.06l1.551 7.212c.122.566.628.966 1.207.953h.2l-6.615 43.11c-.065.425.1.853.435 1.123l9.154 7.398a1.207 1.207 0 0 0 1.527 0l8.949-7.398c.324-.27.484-.688.422-1.104l-6.263-43.129zM27.748 65.345l12.357-14.82 1.473 10.082-9.813 11.808-4.508-3.692.491-3.378zM30.812 17.5h8.376l-1.297 6.034h-5.782L30.812 17.5zm5.715 8.448l3.578 24.573L27.76 65.329l6.034-39.38h2.734zm-1.43 49.133l-3.331-2.667 9.812-11.798 1.206 8.129-7.687 6.336z"/>
        </g>
        <path fill="#C91718" d="M27.397 55.403L40.122 43 41 49.109 29.283 60 27 58.107z"/>
    </g>
</svg>
