<svg xmlns="http://www.w3.org/2000/svg" width="75" height="76" viewBox="0 0 75 76">
    <g fill="none" fill-rule="nonzero">
        <path fill="#000" d="M5 26.195v45.126a3.755 3.755 0 0 0 3.75 3.75 3.755 3.755 0 0 0 3.75-3.75V26.195a6.26 6.26 0 0 0 5-6.124V3.821a3.755 3.755 0 0 0-3.75-3.75c-.964 0-1.835.377-2.5.975a3.726 3.726 0 0 0-2.5-.975c-.964 0-1.835.377-2.5.975a3.726 3.726 0 0 0-2.5-.975A3.755 3.755 0 0 0 0 3.821v16.25a6.26 6.26 0 0 0 5 6.124zM2.5 3.821c0-.688.56-1.25 1.25-1.25S5 3.133 5 3.821v13.75h2.5V3.821c0-.688.56-1.25 1.25-1.25S10 3.133 10 3.821v13.75h2.5V3.821c0-.688.56-1.25 1.25-1.25S15 3.133 15 3.821v16.25a3.755 3.755 0 0 1-3.75 3.75c-.691 0-1.25.56-1.25 1.25v46.25c0 .69-.56 1.25-1.25 1.25s-1.25-.56-1.25-1.25v-46.25c0-.69-.559-1.25-1.25-1.25a3.755 3.755 0 0 1-3.75-3.75V3.821zM74.451.286A1.249 1.249 0 0 0 73.286.16a12.524 12.524 0 0 0-7.799 10.205L62.51 36.178c-.039.33.057.663.265.923l4.726 5.91v28.31a3.755 3.755 0 0 0 3.75 3.75 3.755 3.755 0 0 0 3.75-3.75v-70c0-.415-.206-.802-.549-1.035zM72.5 71.321c0 .69-.56 1.25-1.25 1.25s-1.25-.56-1.25-1.25v-28.75c0-.283-.096-.558-.274-.78l-4.675-5.845 2.919-25.295a10.023 10.023 0 0 1 4.53-7.285v67.955z"/>
        <path fill="#000" d="M29.809 46.21L15.304 63.004a1.249 1.249 0 0 0 .946 2.067h47.5a1.25 1.25 0 1 0 .946-2.068L50.191 46.21A21.271 21.271 0 0 0 61.25 27.571c0-11.717-9.532-21.25-21.25-21.25s-21.25 9.533-21.25 21.25a21.271 21.271 0 0 0 11.059 18.64zM18.98 62.571L40 38.234 61.019 62.57H18.98zm21.965-27.067c-.476-.549-1.416-.549-1.892 0L36.639 38.3a11.207 11.207 0 0 1-7.889-10.729c0-6.202 5.046-11.25 11.25-11.25s11.25 5.048 11.25 11.25a11.21 11.21 0 0 1-7.889 10.73l-2.415-2.797zM40 8.82c10.339 0 18.75 8.412 18.75 18.75 0 7.063-3.994 13.51-10.24 16.692l-3.399-3.935A13.697 13.697 0 0 0 53.75 27.57c0-7.58-6.169-13.75-13.75-13.75s-13.75 6.17-13.75 13.75c0 5.705 3.47 10.697 8.639 12.757l-3.399 3.935c-6.246-3.182-10.24-9.63-10.24-16.692 0-10.338 8.411-18.75 18.75-18.75z"/>
        <path fill="#C91718" d="M33.393 54.357h8.75v4.286h-8.75z"/>
        <path fill="#C91718" d="M40.893 54.357h2.5v4.286h-2.5zM45.893 54.357h2.5v4.286h-2.5z"/>
    </g>
</svg>
