<svg xmlns="http://www.w3.org/2000/svg" width="86" height="80" viewBox="0 0 86 80">
    <g fill="none" fill-rule="evenodd">
        <g fill-rule="nonzero">
            <path stroke="#FFF" stroke-width="1.2" d="M66.435 59.54l-19.88.346-.813-46.5 19.789-.345.678 38.856.137 2.553z"/>
            <path stroke="#FFF" stroke-width="1.2" d="M20.814 1.44l.09 5.173-2.95.052.928 53.202 15.382-.268 12.29.224L45.526 1.01z"/>
            <path fill="#F3FFFB" d="M27.126 13.752l3.635-.063.268 15.364-3.635.064z"/>
            <path fill="#C91718" d="M36.172 13.594l3.635-.063.268 15.364-3.634.064z"/>
            <path fill="#F3FFFB" d="M27.487 34.43l3.634-.064.09 5.169-3.634.063zM36.533 34.271l3.635-.063.09 5.169-3.635.063zM27.668 44.767l3.634-.063.09 5.17-3.634.063zM36.714 44.61l3.634-.064.09 5.17-3.634.063z"/>
            <path fill="#FFF" d="M53.718 23.63l3.634-.064.154 8.78-3.635.063zM53.937 36.163l3.634-.063.09 5.169-3.634.063zM54.09 44.943l3.634-.064.09 5.17-3.634.063z"/>
        </g>
        <path stroke="#FFF" d="M19.167 59.886h47.268L85.71 78.918H1zM58.472 59.503L77.79 78.821M49.782 59.503l19.201 19.318M40.142 59.625L59.421 78.82M30.427 59.42l19.11 19.498M20.711 59.625l19.431 19.293M15.337 63.589l15.682 15.33M11.203 68.678l10.695 10.24M6.819 72.141l6.98 6.777"/>
    </g>
</svg>
