<svg xmlns="http://www.w3.org/2000/svg" width="96" height="74" viewBox="0 0 96 74">
    <g fill="none" fill-rule="nonzero">
        <path fill="#000" d="M57.502 42.66a4.98 4.98 0 1 0 0 9.958 4.98 4.98 0 0 0 0-9.958zm0 7.955a2.982 2.982 0 0 1-2.979-2.978 2.982 2.982 0 0 1 2.979-2.978 2.982 2.982 0 0 1 2.979 2.978 2.982 2.982 0 0 1-2.979 2.978z"/>
        <path fill="#000" d="M67.334 37.476c2.591-1.554 2.529-3.561 2.327-4.486-.832-3.803-3.736-3.986-5.479-3.995L61.255 18.28l-.015-.053-.018-.052c-.712-2.137-2.538-3.421-4.895-3.449-.66-.046-5.963-.401-14.208-.546H28.413c-8.271.146-13.575.501-14.241.547-3.507.031-4.599 2.257-4.938 3.587l-2.915 10.68c-1.745.01-4.63.207-5.458 3.995-.202.924-.265 2.926 2.315 4.48C1.565 38.727.751 40.955.751 44.125V64.873h4.771v5.603c0 1.91 1.685 3.464 3.756 3.464h4.686c2.072 0 3.758-1.554 3.758-3.464v-5.603h35.059v5.603c0 1.91 1.686 3.464 3.758 3.464h4.686c2.071 0 3.756-1.554 3.756-3.464v-5.603h4.771V44.125c-.002-3.164-.813-5.39-2.418-6.649zm.416 7.831v17.566h-4.771v7.603c0 .808-.787 1.464-1.756 1.464h-4.686c-.971 0-1.758-.656-1.758-1.464v-7.603H15.721v7.603c0 .808-.787 1.464-1.758 1.464H9.277c-.971 0-1.756-.656-1.756-1.464v-7.603H2.75V44.125c0-2.814.648-5.162 3.072-5.724l.482-1.765c-1.607-.479-3.873-1.472-3.49-3.22.491-2.246 1.754-2.423 3.78-2.423.38 0 .787.006 1.22.006v.111l3.361-12.302c.372-1.463 1.377-2.081 3.074-2.081 0 0 5.341-.391 14.166-.546v-.001h13.67c8.825.155 14.166.546 14.166.546 1.698 0 2.685.911 3.074 2.081l3.382 12.375V31c.434 0 .84-.006 1.22-.006 2.026 0 3.289.178 3.78 2.423.384 1.755-1.899 2.749-3.508 3.225l.48 1.759c2.424.563 3.07 2.91 3.07 5.725v1.181h.001z"/>
        <path fill="#000" d="M12.639 36.004H57.86c1.526 0 1.604-.633 1.604-1.416l-2.986-13.696c-.313-.782-1.238-1.417-2.766-1.417 0 0-13.921-.317-18.48-.317-4.559 0-18.445.317-18.445.317-1.525 0-2.506.672-2.764 1.417l-2.986 13.696c-.002.783.076 1.416 1.602 1.416zm3.264-14.355c.132-.073.419-.174.882-.174.184-.004 13.96-.317 18.445-.317 4.485 0 18.296.313 18.435.316.528 0 .813.104.93.173l2.694 12.357h-44.08l2.694-12.355zM12.998 42.66a4.977 4.977 0 1 0 .001 9.955 4.977 4.977 0 0 0-.001-9.955zm0 7.955a2.981 2.981 0 0 1-2.977-2.978 2.98 2.98 0 0 1 2.977-2.978 2.982 2.982 0 0 1 2.979 2.978 2.982 2.982 0 0 1-2.979 2.978zM90.25.061h-19c-2.757 0-5 2.243-5 5v19c0 2.757 2.243 5 5 5h5.5v40.781c0 2.26 1.794 4.098 4 4.098s4-1.838 4-4.098V29.061h5.5c2.757 0 5-2.243 5-5v-19c0-2.757-2.243-5-5-5zm3 24a3 3 0 0 1-3 3h-7.5v42.781c0 1.158-.896 2.098-2 2.098s-2-.939-2-2.098V27.061h-7.5a3 3 0 0 1-3-3v-19a3 3 0 0 1 3-3h19a3 3 0 0 1 3 3v19z"/>
        <path fill="#C91718" d="M85.726 8.244c-.44-.475-1.007-.849-1.702-1.121-.695-.27-1.513-.406-2.449-.406H74.5v15.686h3.449v-5.625h3.625c.937 0 1.754-.135 2.449-.406.695-.271 1.262-.645 1.702-1.121a4.511 4.511 0 0 0 .967-1.614c.204-.601.308-1.23.308-1.89 0-.66-.104-1.289-.308-1.89a4.514 4.514 0 0 0-.966-1.613zm-2.066 3.505c0 .482-.076.879-.23 1.187a1.663 1.663 0 0 1-.66.713 2.945 2.945 0 0 1-.954.353 6.653 6.653 0 0 1-1.187.098h-2.68V9.398h2.68c.439 0 .835.03 1.187.088.351.059.671.177.954.352.287.175.507.417.66.726.154.307.23.702.23 1.185z"/>
    </g>
</svg>
