<svg xmlns="http://www.w3.org/2000/svg" width="84" height="79" viewBox="0 0 84 79">
    <g fill="none" fill-rule="evenodd">
        <g fill="#000" fill-rule="nonzero">
            <path d="M18.515 17.29a1.296 1.296 0 0 0-1.313-1.313H1.313a1.313 1.313 0 0 0 0 2.625h15.89c.725 0 1.313-.587 1.313-1.312zM19.093 11.498h8.75a1.313 1.313 0 0 0 0-2.625h-8.75a1.313 1.313 0 0 0 0 2.625zM78.33 35.525h-.297C77.388 21.012 66.358 9.087 51.94 7.315c.239-.51.364-1.065.367-1.628a4.008 4.008 0 0 0-8.015 0 3.797 3.797 0 0 0 .35 1.61 29.942 29.942 0 0 0-22.155 14.665 1.313 1.313 0 0 0 .473 1.75 1.33 1.33 0 0 0 1.75-.472 27.142 27.142 0 0 1 50.645 12.25h-54.25a27.265 27.265 0 0 1 1.05-6.3h5.6a1.313 1.313 0 0 0 0-2.625H6.633a1.313 1.313 0 0 0 0 2.625h12.88a28.28 28.28 0 0 0-.963 6.3h-.578a5.67 5.67 0 1 0 0 11.34h12.145a4.235 4.235 0 0 0-1.225.543c-2.327 1.487-1.05 4.585.21 7.577a10.08 10.08 0 0 1 .648 7.542c0 .105-.21.42-.332.666a13.842 13.842 0 0 0-1.75 4.322 20.615 20.615 0 0 0 1.137 10.377c.205.497.688.821 1.225.823.169-.001.335-.037.49-.105a1.295 1.295 0 0 0 .718-1.75 18.113 18.113 0 0 1-.998-8.873c.28-1.233.752-2.414 1.4-3.5.234-.368.428-.761.578-1.172a12.688 12.688 0 0 0-.718-9.328c-.455-1.102-1.75-4.024-1.207-4.34a2.03 2.03 0 0 1 1.645-.28 4.393 4.393 0 0 1 2.555 2.153 38.763 38.763 0 0 1 2.467 7.84c.086.403.36.74.735.91l2.45 1.138-1.103 2.187c-1.592.612-5.88 2.625-5.88 6.3a1.313 1.313 0 0 0 2.626 0c0-2.013 3.412-3.605 4.602-4.007.327-.108.598-.34.752-.648L49 49.858c.186-.36.558-.583.962-.578.373-.008.721.186.91.508.199.328.199.739 0 1.067L45.5 62.493a1.33 1.33 0 0 0 .63 1.75c.427.201.93.154 1.313-.123.215-.03.42-.114.595-.245l8.4-6.492a1.4 1.4 0 0 0 .227-.228l5.898-7.543a.927.927 0 0 1 .717-.332.857.857 0 0 1 .787.472.91.91 0 0 1 0 .963L54.81 63.927l-8.75 8.19a5.25 5.25 0 0 0-2.083 4.48v.613a1.295 1.295 0 0 0 1.156 1.453h.14a1.33 1.33 0 0 0 1.312-1.173 7.612 7.612 0 0 0 0-.892 2.695 2.695 0 0 1 1.225-2.555l8.75-8.313c.063-.066.121-.136.175-.21l9.31-13.317a3.5 3.5 0 0 0 .245-3.675 3.395 3.395 0 0 0-1.978-1.75h14a5.67 5.67 0 0 0 0-11.34l.018.087zM46.917 5.775A1.383 1.383 0 1 1 48.3 7a1.383 1.383 0 0 1-1.383-1.313v.088zm-.262 42.875l-5.25 10.378-1.977-.893a37.03 37.03 0 0 0-2.678-7.962 6.86 6.86 0 0 0-4.008-3.308h16.013a3.727 3.727 0 0 0-2.1 1.785zm13.79-.648l-5.792 7.403-4.638 3.587 3.307-7a3.78 3.78 0 0 0-.227-3.604 3.692 3.692 0 0 0-1.96-1.505h10.938a3.5 3.5 0 0 0-1.628 1.12zM78.33 44.24H17.972a3.045 3.045 0 1 1 0-6.09H78.33a3.045 3.045 0 1 1 0 6.09z"/>
        </g>
        <circle cx="48" cy="4.8" r="4.8" fill="#C91718"/>
    </g>
</svg>
