<svg xmlns="http://www.w3.org/2000/svg" xmlns:xlink="http://www.w3.org/1999/xlink" width="40" height="41" viewBox="0 0 40 41">
    <defs>
        <rect id="a" width="43.478" height="40" rx="8"/>
    </defs>
    <g fill="none" fill-rule="evenodd" transform="translate(-1.74 .278)">
        <mask id="b" fill="#fff">
            <use xlink:href="#a"/>
        </mask>
        <use fill="#EDEEFF" xlink:href="#a"/>
        <path fill="#AEB5CB" fill-rule="nonzero" d="M15.336 34.395l-4.092 4.651c-.38.21-5.257 5.45-5.574 5.73 3.773 3.213 10.8-.92 16.122-.92 5.282 0 12.37 4.089 16.133.92-.347-.296-5.327-5.52-5.745-5.73l-4.575-4.538a2.671 2.671 0 0 1-1.46-2.386v-2.746c.194-.224.417-.512.655-.851a16.165 16.165 0 0 0 2.154-4.384 2.195 2.195 0 0 0 1.544-2.09V19.12c0-.645-.284-1.221-.725-1.624v-4.237s.861-6.592-7.98-6.592c-8.842 0-7.98 6.592-7.98 6.592v4.237c-.443.403-.726.98-.726 1.624v2.93c0 .772.402 1.452 1.004 1.844.725 3.188 2.624 5.482 2.624 5.482v2.678c-.001.975-.53 1.873-1.379 2.341z" mask="url(#b)"/>
    </g>
</svg>
