<svg xmlns="http://www.w3.org/2000/svg" width="87" height="64" viewBox="0 0 87 64">
    <g fill="none" fill-rule="nonzero">
        <path fill="#000" stroke="#FFF" stroke-width="2.5" d="M16 61.9c-.6 0-1.3-.2-1.8-.7C6.4 53.3 2 42.8 2 31.7 2 20.6 6.3 10.1 14.2 2.2c1-1 2.6-1 3.5 0 1 1 1 2.6 0 3.5-6.8 7-10.7 16.2-10.7 26s3.8 19 10.7 25.9c1 1 1 2.6 0 3.5-.4.5-1.1.8-1.7.8zm9.5-8.4c1-1 1-2.6 0-3.5-4.9-4.9-7.6-11.3-7.6-18.2 0-6.9 2.7-13.4 7.6-18.2 1-1 1-2.6 0-3.5-1-1-2.6-1-3.5 0-5.8 5.8-9 13.5-9 21.8s3.2 16 9 21.8c.5.5 1.1.7 1.8.7s1.2-.5 1.7-.9zm7.7-7.7c1-1 1-2.6 0-3.5-5.8-5.8-5.8-15.3 0-21.1 1-1 1-2.6 0-3.5-1-1-2.6-1-3.5 0-7.8 7.8-7.8 20.4 0 28.1.5.5 1.1.7 1.8.7s1.2-.2 1.7-.7zm40 15.4c7.9-7.9 12.2-18.3 12.2-29.5S81 10.1 73.2 2.2c-1-1-2.6-1-3.5 0-1 1-1 2.6 0 3.5 6.9 6.9 10.7 16.1 10.7 25.9 0 9.8-3.8 19-10.7 25.9-1 1-1 2.6 0 3.5.5.5 1.1.7 1.8.7s1.2-.1 1.7-.5zm-7.7-7.7c5.8-5.8 9-13.5 9-21.8s-3.2-16-9-21.8c-1-1-2.6-1-3.5 0-1 1-1 2.6 0 3.5 4.9 4.9 7.6 11.3 7.6 18.2 0 6.9-2.7 13.4-7.6 18.2-1 1-1 2.6 0 3.5.5.5 1.1.7 1.8.7s1.2-.1 1.7-.5zm-7.7-7.7c3.8-3.8 5.8-8.8 5.8-14.1 0-5.3-2.1-10.3-5.8-14.1-1-1-2.6-1-3.5 0-1 1-1 2.6 0 3.5 2.8 2.8 4.4 6.6 4.4 10.5 0 3.9-1.6 7.7-4.4 10.5-1 1-1 2.6 0 3.5.5.5 1.1.7 1.8.7s1.2 0 1.7-.5z"/>
        <path fill="#C91718" d="M44 27c-3.326 0-6 2.674-6 6s2.674 6 6 6 6-2.674 6-6-2.674-6-6-6z"/>
    </g>
</svg>
